# Blender v2.79 (sub 0) OBJ File: ''
# www.blender.org
mtllib Caja Triangulada.mtl
o Cube.001
v 0.489002 -0.155011 -1.312250
v 0.489002 -0.155011 0.687750
v -1.510998 -0.155011 0.687750
v -1.510998 -0.155011 -1.312250
v 0.489003 1.844989 -1.312249
v -1.510998 1.844989 -1.312250
v -1.510998 1.844989 0.687750
v 0.489001 1.844989 0.687751
vt 0.662704 -0.843875
vt -0.002750 0.156125
vt 0.662704 0.156125
vt -0.002750 0.156125
vt 0.662704 -0.843875
vt 0.662704 0.156125
vt 0.271167 1.422495
vt -0.394288 0.422495
vt 0.271167 0.422495
vt 0.662704 1.422495
vt -0.002750 0.422495
vt 0.662704 0.422495
vt 0.271167 1.422495
vt 0.936621 0.422495
vt 0.271167 0.422495
vt 0.662704 -0.577505
vt -0.002750 0.422495
vt 0.662704 0.422495
vt -0.002750 -0.843875
vt -0.002750 -0.843875
vt -0.394288 1.422495
vt -0.002750 1.422495
vt 0.936621 1.422495
vt -0.002750 -0.577505
vn 0.0000 -1.0000 -0.0000
vn 0.0000 1.0000 -0.0000
vn 1.0000 -0.0000 0.0000
vn -0.0000 -0.0000 1.0000
vn -1.0000 -0.0000 0.0000
vn 0.0000 0.0000 -1.0000
usemtl Material.001
s 1
f 2/1/1 4/2/1 1/3/1
f 6/4/2 8/5/2 5/6/2
f 5/7/3 2/8/3 1/9/3
f 8/10/4 3/11/4 2/12/4
f 7/13/5 4/14/5 3/15/5
f 1/16/6 6/17/6 5/18/6
f 2/1/1 3/19/1 4/2/1
f 6/4/2 7/20/2 8/5/2
f 5/7/3 8/21/3 2/8/3
f 8/10/4 7/22/4 3/11/4
f 7/13/5 6/23/5 4/14/5
f 1/16/6 4/24/6 6/17/6
